<svg version="1.1" id="Layer_1" xmlns="http://www.w3.org/2000/svg" xmlns:xlink="http://www.w3.org/1999/xlink" x="0px" y="0px"
	 width="100%" viewBox="0 0 330 67" enable-background="new 0 0 330 67" xml:space="preserve">
<path fill="#000000" opacity="1.000000" stroke="none" 
	d="
M176.252136,67.737473 
	C119.032417,68.000000 62.064770,67.969109 5.097406,68.081474 
	C1.888765,68.087799 0.841439,67.734558 0.885550,64.100403 
	C1.126111,44.281269 1.041789,24.457491 0.949344,4.635868 
	C0.937212,2.034587 0.988093,0.886306 4.360523,0.890473 
	C112.132370,1.023633 219.904419,1.010968 327.676361,0.934856 
	C330.289856,0.933011 331.116211,1.236577 331.090973,4.173502 
	C330.917725,24.327209 330.880890,44.484509 331.116699,64.636948 
	C331.156219,68.014259 329.969299,68.053635 327.365570,68.049324 
	C285.222900,67.979599 243.080093,68.000000 200.468658,68.000000 
	C199.667542,67.617638 199.483414,67.177071 199.581757,66.316238 
	C202.290512,64.092728 205.641861,62.832970 205.597168,58.402863 
	C205.674469,54.615879 205.569595,51.201321 205.720139,47.393322 
	C205.806534,46.740715 205.859604,46.483200 206.050430,45.857845 
	C207.104309,43.872520 208.778732,43.046719 210.348877,41.561180 
	C211.314087,40.913284 212.020767,40.664677 213.115051,40.963615 
	C214.373077,42.622692 214.499680,44.322605 214.823975,45.933193 
	C215.423096,48.908546 217.057953,50.671608 220.496216,51.101921 
	C227.663513,52.015160 234.468643,51.582012 241.639984,51.311729 
	C245.759720,50.538303 248.376831,48.762814 248.576447,44.184212 
	C248.423737,37.057995 249.008774,30.314604 248.120697,23.214123 
	C247.022049,18.608040 244.355621,17.060003 240.096069,17.327753 
	C235.533783,17.614540 230.955582,16.961170 226.009918,17.042080 
	C223.146790,16.170311 220.776718,14.754986 217.960464,15.631457 
	C213.171555,17.121841 211.675262,21.167854 213.761414,27.778942 
	C214.163742,29.348164 214.223190,30.572786 213.790131,32.148350 
	C210.035553,34.391159 209.674362,29.970907 207.138306,29.001614 
	C206.737640,28.536175 206.595612,28.334293 206.302307,27.794153 
	C205.697128,26.060959 205.757874,24.538435 204.935852,22.857983 
	C203.243317,18.905588 200.491318,17.321074 196.593277,17.371405 
	C190.992218,17.443720 185.388306,17.286716 179.787735,17.440775 
	C175.869720,17.548552 172.697739,18.906700 171.173996,23.323849 
	C169.743149,30.171221 170.541428,36.699024 170.654373,43.573689 
	C171.172150,47.257423 172.463425,49.906506 176.329971,50.996529 
	C179.302795,52.117325 182.120789,51.305573 185.134979,52.077427 
	C188.653152,55.399574 191.855011,54.281532 195.434555,52.133430 
	C197.474655,51.619648 199.138306,51.603321 201.199921,52.275455 
	C204.238998,56.841324 203.989487,58.592899 199.849792,62.017677 
	C192.671417,62.639610 185.902863,62.324245 178.847748,62.446075 
	C178.093185,63.349358 178.108963,64.239990 177.853333,65.424736 
	C177.504578,66.452164 177.045380,66.993698 176.252136,67.737473 
z"/>
<path fill="#999999" opacity="1.000000" stroke="none" 
	d="
M176.468628,68.000000 
	C176.917236,67.573997 176.166656,66.806885 176.643982,66.042358 
	C184.376511,63.303131 191.903137,64.000145 199.817032,65.653748 
	C199.952164,66.454689 199.714737,66.921356 199.738647,67.694016 
	C192.312424,68.000000 184.624832,68.000000 176.468628,68.000000 
z"/>
<path fill="#343434" opacity="1.000000" stroke="none" 
	d="
M200.553284,66.014313 
	C192.749069,65.979904 185.308548,65.971779 177.397308,65.907631 
	C176.942734,64.860466 176.958893,63.869328 176.947388,62.507191 
	C183.935547,60.676620 191.040070,61.974911 198.503784,61.254498 
	C203.828568,59.878716 201.780609,56.340183 201.201202,53.170448 
	C199.221771,52.034153 197.430832,52.677532 195.326843,52.538975 
	C193.974106,52.999439 192.968353,53.269016 191.505615,53.322533 
	C190.560989,53.345669 190.018295,53.343704 189.060394,53.320000 
	C187.791885,53.273201 186.984787,53.061287 185.806427,52.586926 
	C182.513046,52.438709 179.635239,52.560360 176.382507,52.213921 
	C172.575790,51.268749 169.615814,50.087311 169.990173,45.319145 
	C168.982712,37.945518 169.720581,30.932493 169.779053,23.506153 
	C170.574234,17.877979 174.238052,16.226870 178.679581,16.070715 
	C185.489731,15.831289 192.315277,15.880159 199.130814,16.001501 
	C202.937027,16.069263 204.953110,18.576120 206.016113,22.338055 
	C206.876663,24.179113 206.283218,25.837837 206.803223,27.706688 
	C207.050995,28.019758 207.028503,28.016138 207.018768,28.021997 
	C207.474487,28.637972 207.733749,29.340750 207.956772,30.447096 
	C207.967438,31.069330 207.949219,31.317251 207.863663,31.928934 
	C207.095093,34.903309 207.106232,37.527115 207.752563,40.521080 
	C207.904114,41.129578 207.953705,41.377785 208.036957,42.008224 
	C208.065857,43.180378 207.902985,43.925640 207.211639,44.896271 
	C206.973572,45.203644 207.102341,45.575771 207.062378,45.768562 
	C205.853180,49.950016 206.762299,54.023533 206.683990,58.427467 
	C206.844727,62.836754 205.071274,65.412964 200.553284,66.014313 
z"/>
<path fill="#343434" opacity="1.000000" stroke="none" 
	d="
M322.525208,31.296280 
	C323.032074,28.239977 323.276306,25.330536 321.916382,22.185358 
	C311.921021,21.111624 301.930573,21.711611 291.510559,21.277397 
	C290.458099,17.407198 291.537933,15.696231 295.771637,15.908346 
	C302.741119,16.257528 309.750031,16.219872 316.724335,15.922646 
	C320.943329,15.742844 324.177185,16.975687 326.849518,20.590387 
	C328.114136,30.268944 327.122101,39.686012 327.738770,49.504787 
	C327.975067,50.404903 328.015472,50.876831 328.010376,51.701584 
	C317.917694,52.991238 307.850189,52.294689 297.357422,52.209511 
	C292.456360,51.892120 291.065002,49.015121 290.979523,45.183178 
	C290.887756,41.069061 291.005341,36.950279 291.064026,32.360382 
	C301.416199,30.996593 311.759216,31.813803 322.525208,31.296280 
z"/>
<path fill="#343434" opacity="1.000000" stroke="none" 
	d="
M127.332123,21.124355 
	C126.367363,16.906727 128.079742,15.768152 131.946869,15.917029 
	C139.537247,16.209244 147.147110,15.965040 154.748505,16.012003 
	C159.518860,16.041475 162.392548,18.534548 163.026138,23.435966 
	C164.124832,32.888168 163.203384,41.995197 163.310669,51.550323 
	C153.455002,53.065830 143.713104,52.248253 133.543610,52.226234 
	C130.353210,51.647396 127.653343,51.206856 127.029846,47.401878 
	C125.925850,42.330235 126.757118,37.567989 126.709442,32.388733 
	C136.943024,30.957567 147.050858,31.844912 157.564514,31.247169 
	C157.717911,28.263483 158.704224,25.370722 157.101883,22.312347 
	C147.236435,20.865824 137.460968,21.864851 127.332123,21.124355 
z"/>
<path fill="#343434" opacity="1.000000" stroke="none" 
	d="
M62.527863,52.224274 
	C58.981541,52.168171 56.753986,51.069672 56.036041,47.412277 
	C54.959564,39.349442 55.724918,31.618963 55.784172,23.470682 
	C56.208866,18.131634 59.079750,16.060692 63.670574,16.017693 
	C70.447548,15.954220 77.228271,15.883801 84.002090,16.042585 
	C88.076111,16.138084 91.217354,17.835218 92.019257,22.700844 
	C93.020134,27.123793 92.275848,31.218008 92.240433,35.714565 
	C81.970024,36.957600 71.870132,36.188564 61.387596,36.810448 
	C61.192364,40.229687 60.562088,43.435066 61.782631,46.832737 
	C71.786697,48.071426 81.502121,47.184597 91.617111,47.782963 
	C93.375908,49.051743 93.130569,50.330139 92.258575,51.830494 
	C82.313255,53.082336 72.632133,52.242390 62.527863,52.224274 
z"/>
<path fill="#353535" opacity="1.000000" stroke="none" 
	d="
M212.656403,33.441460 
	C212.988068,31.665268 212.995605,30.235029 212.996582,28.375774 
	C209.531952,20.326832 216.043823,12.966360 224.554047,15.777672 
	C230.307831,15.992047 235.711182,16.411072 241.015503,15.866262 
	C245.378372,15.418153 247.886520,16.651028 248.990051,21.205582 
	C250.057800,29.025387 249.156723,36.536655 249.707916,44.455753 
	C249.804779,49.000759 248.004440,51.611847 243.291397,52.021053 
	C235.601578,53.043320 228.263489,52.260216 220.511444,52.222530 
	C214.451645,51.844090 213.433060,50.368996 212.990814,41.336510 
	C211.109314,38.688656 211.396042,36.267666 212.656403,33.441460 
z"/>
<path fill="#343434" opacity="1.000000" stroke="none" 
	d="
M103.783676,15.635761 
	C107.850388,16.004351 111.684189,16.116596 115.508240,15.971743 
	C118.635651,15.853278 120.308159,16.940792 119.953163,20.690010 
	C114.864113,21.989044 109.751183,21.186502 104.324554,21.831894 
	C103.977776,22.118593 104.069839,22.555939 104.035736,22.776787 
	C102.894203,29.982300 103.728149,37.010559 103.693161,44.424278 
	C104.424118,45.493931 104.991554,46.154942 105.846535,46.976067 
	C110.151550,48.001553 114.227303,47.233772 118.643616,47.783180 
	C120.318581,48.834045 119.906670,50.155754 119.957886,51.714275 
	C115.250351,52.948341 110.522438,52.313892 105.391708,52.212543 
	C101.248436,52.236069 99.654861,50.026180 98.983688,46.403053 
	C97.910324,38.483582 98.710106,30.897509 98.546326,23.332190 
	C98.414085,17.223446 98.460030,11.108275 98.727097,4.536998 
	C100.116112,4.145740 101.334480,4.213739 102.778015,4.573469 
	C104.064903,8.286887 103.167664,11.810891 103.783676,15.635761 
z"/>
<path fill="#333333" opacity="1.000000" stroke="none" 
	d="
M263.524994,21.739325 
	C262.809906,22.177958 262.505951,22.419779 262.050964,22.912674 
	C260.925812,32.465939 261.814209,41.799538 261.218201,51.529053 
	C260.202454,53.302361 258.869019,52.902817 257.294098,52.924812 
	C256.038177,42.846317 256.697296,32.775394 256.777893,22.275288 
	C257.982880,17.629173 260.763458,15.928947 264.944397,15.984084 
	C270.267242,16.054281 275.591736,16.018908 280.915405,15.998383 
	C284.106140,15.986081 285.722595,17.164099 284.233154,20.799644 
	C277.281097,22.085461 270.590759,21.135653 263.524994,21.739325 
z"/>
<path fill="#8ECCE9" opacity="1.000000" stroke="none" 
	d="
M14.759039,19.355707 
	C25.055502,26.637657 25.030159,26.606350 35.053196,18.492422 
	C37.928345,16.164911 40.996170,14.075418 44.569904,11.438271 
	C45.178925,14.905243 45.542038,17.208403 42.380070,19.268927 
	C37.237980,22.619814 32.233646,26.258064 27.577490,30.249065 
	C24.946093,32.504555 23.370636,31.502905 21.348410,29.870266 
	C18.322361,27.427197 15.228056,25.068666 12.023293,22.353798 
	C12.498029,20.920277 13.668757,20.403601 14.759039,19.355707 
z"/>
<path fill="#242779" opacity="1.000000" stroke="none" 
	d="
M41.152462,30.860783 
	C36.470272,32.633354 33.212688,36.000973 29.748669,38.870659 
	C26.151445,41.850700 23.403097,41.918911 20.148024,38.691330 
	C17.954967,36.516796 14.814493,35.319885 13.579085,32.141945 
	C13.268645,31.343378 12.813179,30.544489 13.359681,29.817421 
	C14.245290,28.639202 15.250270,29.661173 15.970695,30.065613 
	C17.531572,30.941879 19.253542,31.835815 20.350225,33.179203 
	C24.173981,37.863121 27.600840,35.610458 30.783552,32.657234 
	C33.102726,30.505285 35.663853,28.816824 38.675186,27.111916 
	C40.107876,27.404997 40.826511,28.250328 41.437424,29.610611 
	C41.465126,30.165310 41.423080,30.387617 41.152462,30.860783 
z"/>
<path fill="#83CCED" opacity="1.000000" stroke="none" 
	d="
M14.768213,19.087543 
	C15.084597,20.835676 14.654355,22.080631 12.254358,22.018196 
	C11.534834,22.028097 11.268517,21.877052 11.022589,21.350439 
	C9.670250,20.494759 9.590612,20.572124 9.483650,22.933235 
	C9.404558,28.751905 9.656971,34.195621 9.067045,39.994328 
	C5.721499,41.310658 5.498644,39.403217 5.507170,37.159676 
	C5.533578,30.210632 5.501257,23.261442 5.570969,15.832383 
	C6.231544,14.283457 7.261813,14.577257 8.644436,14.752110 
	C9.090314,14.939601 9.011224,14.966546 9.028214,14.928380 
	C9.215836,15.184883 9.423897,15.449661 9.889154,15.817340 
	C10.102732,15.955073 10.026158,15.969850 10.033924,15.931637 
	C10.214461,16.191319 10.431392,16.451714 10.911501,16.813206 
	C11.123248,16.957973 11.577511,17.016033 11.794195,17.090057 
	C12.192136,17.295986 12.373393,17.427887 12.829783,17.753101 
	C13.104917,17.946413 13.027871,17.967979 13.036009,17.928814 
	C13.212689,18.189018 13.429504,18.447971 13.901065,18.817341 
	C14.107541,18.968168 14.552983,19.023857 14.768213,19.087543 
z"/>
<path fill="#21217C" opacity="1.000000" stroke="none" 
	d="
M41.228584,30.373173 
	C40.357296,29.205662 39.712765,28.403425 39.029987,27.284878 
	C39.051628,26.656334 39.202351,26.396868 39.637871,26.069096 
	C40.134563,25.781015 40.412163,25.579401 40.809021,25.128922 
	C40.953465,24.914717 40.998135,24.983639 40.960941,24.966228 
	C41.094490,24.822214 41.265236,24.695608 41.693398,24.380875 
	C42.854530,23.632593 44.224167,22.384434 44.583664,22.627892 
	C46.429424,23.877863 44.323433,25.770147 45.025543,27.698606 
	C45.959770,31.043335 45.310997,34.095291 45.245464,37.530762 
	C45.245831,39.865074 46.150890,42.212372 42.322571,41.878197 
	C40.974926,38.171913 41.820591,34.426697 41.228584,30.373173 
z"/>
<path fill="#EDEDED" opacity="1.000000" stroke="none" 
	d="
M224.857498,15.607922 
	C214.959595,16.031340 212.963562,17.893726 213.010986,27.527142 
	C210.189850,24.172804 210.133881,20.560585 213.478287,17.021585 
	C216.812729,13.493116 220.558685,13.020845 224.857498,15.607922 
z"/>
<path fill="#B2B2B2" opacity="1.000000" stroke="none" 
	d="
M98.523834,4.285984 
	C98.943878,17.747864 98.990005,31.417986 99.019775,45.558479 
	C97.900703,45.791965 98.001915,44.917107 98.004700,44.112751 
	C98.050392,30.906569 98.100662,17.700399 98.523834,4.285984 
z"/>
<path fill="#E7E7E7" opacity="1.000000" stroke="none" 
	d="
M212.649185,32.974342 
	C212.983948,35.411858 212.987350,37.728207 212.986542,40.478569 
	C212.549423,41.244320 212.116486,41.576061 211.410736,41.980789 
	C210.287582,42.473320 209.826004,41.953011 209.281754,41.010811 
	C209.499054,37.525642 208.504852,34.632099 207.178894,31.507690 
	C206.959473,30.449427 206.943115,29.647676 206.967896,28.436892 
	C209.674194,28.650988 210.983200,30.766176 212.649185,32.974342 
z"/>
<path fill="#9ED4EB" opacity="1.000000" stroke="none" 
	d="
M6.278957,14.737394 
	C6.000376,21.916945 5.953730,28.832409 6.027345,35.746590 
	C6.044657,37.372654 5.205835,39.619312 8.480220,39.944481 
	C9.070408,40.115696 9.252090,40.283459 9.221155,40.755169 
	C7.308064,42.077705 5.048317,43.524803 5.081219,39.999908 
	C5.164257,31.103758 4.263863,22.180258 5.812475,13.607338 
	C6.212458,14.095347 6.383633,14.284093 6.278957,14.737394 
z"/>
<path fill="#999999" opacity="1.000000" stroke="none" 
	d="
M322.499634,31.085737 
	C319.549194,32.972454 315.874695,31.827711 312.335815,31.935526 
	C305.568817,32.141685 298.790680,31.980957 291.556824,31.929863 
	C293.435211,30.122416 296.126587,31.098328 298.632782,31.054693 
	C306.431274,30.918919 314.234039,31.028784 322.499634,31.085737 
z"/>
<path fill="#CDCDCD" opacity="1.000000" stroke="none" 
	d="
M133.265808,52.419739 
	C142.715149,52.011299 152.328568,52.003902 162.400421,51.959068 
	C163.044388,51.766335 163.229904,51.611038 163.642792,51.738609 
	C163.749680,53.272526 162.771515,52.977024 162.039352,52.974194 
	C152.502792,52.937340 142.966339,52.875977 133.265808,52.419739 
z"/>
<path fill="#808080" opacity="1.000000" stroke="none" 
	d="
M61.458344,37.036526 
	C62.183437,35.305275 64.010750,36.057198 65.552940,36.041538 
	C74.017090,35.955559 82.482430,35.987000 91.405960,35.938675 
	C92.052147,36.034374 92.239738,36.169529 92.243591,36.598824 
	C82.015564,36.931023 71.971291,36.969078 61.458344,37.036526 
z"/>
<path fill="#E7E7E7" opacity="1.000000" stroke="none" 
	d="
M291.256897,21.503315 
	C301.126770,21.165863 311.181732,21.219324 321.567505,21.515303 
	C311.746185,21.803288 301.594055,21.848759 291.256897,21.503315 
z"/>
<path fill="#E2E2E2" opacity="1.000000" stroke="none" 
	d="
M126.624298,21.059011 
	C136.782669,20.981178 146.612076,21.122595 156.708694,21.592684 
	C147.449768,21.947844 137.923599,21.979332 128.397430,21.991293 
	C127.638542,21.992247 126.734329,22.280457 126.624298,21.059011 
z"/>
<path fill="#CFCFCF" opacity="1.000000" stroke="none" 
	d="
M297.109894,52.391937 
	C306.960388,51.974480 316.998993,51.959927 327.501221,51.999889 
	C327.219055,53.817162 325.672089,52.955608 324.530151,52.957012 
	C315.452850,52.968166 306.375397,52.863770 297.109894,52.391937 
z"/>
<path fill="#666666" opacity="1.000000" stroke="none" 
	d="
M256.606079,22.058657 
	C256.990601,31.884520 256.988312,41.932266 256.952026,52.439575 
	C254.958771,50.971619 256.096466,48.554489 256.069397,46.413097 
	C255.967667,38.370831 256.145905,30.325022 256.606079,22.058657 
z"/>
<path fill="#999999" opacity="1.000000" stroke="none" 
	d="
M157.523209,31.021317 
	C156.030334,32.997730 153.583527,31.889498 151.396286,31.934168 
	C143.581558,32.093765 135.761688,32.000637 127.476227,32.027557 
	C126.870781,31.900774 126.732887,31.749567 126.816933,31.386303 
	C137.044434,31.116707 147.049988,31.059170 157.523209,31.021317 
z"/>
<path fill="#CDCDCD" opacity="1.000000" stroke="none" 
	d="
M62.251713,52.419323 
	C71.737473,52.009254 81.385391,52.002426 91.499741,52.000565 
	C91.592232,53.387344 90.434669,52.980267 89.550583,52.977585 
	C80.504936,52.950176 71.459427,52.880463 62.251713,52.419323 
z"/>
<path fill="#4E4E4E" opacity="1.000000" stroke="none" 
	d="
M91.775307,47.657845 
	C82.250587,47.887478 72.464005,47.779202 62.389305,47.386246 
	C71.905273,47.174355 81.709358,47.247143 91.775307,47.657845 
z"/>
<path fill="#4E4E4E" opacity="1.000000" stroke="none" 
	d="
M327.953644,49.470905 
	C325.941132,46.181587 327.239990,42.158913 327.065277,38.273281 
	C326.819550,32.807930 326.990234,27.323856 326.998657,21.369436 
	C328.977020,22.621798 327.913269,24.895351 327.947571,26.890699 
	C328.074249,34.261375 327.982361,41.635811 327.953644,49.470905 
z"/>
<path fill="#B2B2B2" opacity="1.000000" stroke="none" 
	d="
M261.411926,51.780891 
	C261.088104,42.519211 261.168396,33.091965 261.574341,23.414234 
	C261.871979,32.647610 261.843994,42.131470 261.411926,51.780891 
z"/>
<path fill="#B2B2B2" opacity="1.000000" stroke="none" 
	d="
M163.925232,51.554302 
	C163.701355,52.007095 163.532593,51.992706 163.111343,51.949978 
	C162.906219,42.874508 162.953568,33.827381 162.990784,24.298512 
	C164.964828,25.135326 163.914398,27.139582 163.942169,28.785498 
	C164.067566,36.217472 163.986801,43.652924 163.925232,51.554302 
z"/>
<path fill="#FCFCFC" opacity="1.000000" stroke="none" 
	d="
M190.827164,52.419796 
	C192.102524,52.258457 193.121429,52.244907 194.520248,52.278221 
	C195.114944,52.413013 195.329727,52.500942 195.290771,52.827232 
	C192.208542,55.437405 189.386948,57.894196 186.009552,53.411068 
	C185.812363,52.878269 185.639572,52.729847 185.780914,52.447025 
	C186.799484,52.278740 187.503891,52.244854 188.559326,52.251671 
	C189.426804,52.607327 189.960144,52.820419 190.827164,52.419796 
z"/>
<path fill="#808080" opacity="1.000000" stroke="none" 
	d="
M55.622993,23.246227 
	C56.020756,30.725100 56.043865,38.414452 56.034386,46.575024 
	C53.879322,44.838940 55.144470,42.133690 55.076447,39.693539 
	C54.925743,34.287060 55.166950,28.869658 55.622993,23.246227 
z"/>
<path fill="#CDCDCD" opacity="1.000000" stroke="none" 
	d="
M220.240845,52.418304 
	C227.379837,52.015629 234.680222,52.017506 242.443054,52.018112 
	C239.669556,54.199451 236.070602,52.704903 232.657608,52.926067 
	C228.591766,53.189533 224.488998,52.882645 220.240845,52.418304 
z"/>
<path fill="#4E4E4E" opacity="1.000000" stroke="none" 
	d="
M249.928085,44.434261 
	C247.868866,37.521149 249.565887,30.005295 249.027161,22.066746 
	C251.097702,26.953632 249.530991,32.558701 249.971176,38.051228 
	C250.128494,40.014088 249.981888,42.001297 249.928085,44.434261 
z"/>
<path fill="#808080" opacity="1.000000" stroke="none" 
	d="
M198.459076,61.032410 
	C194.005585,63.159695 188.855972,61.495186 183.835373,61.967590 
	C181.860229,62.153435 179.855270,62.022266 177.391815,62.085827 
	C176.519318,59.902458 178.312378,61.077679 178.904755,61.067974 
	C185.267334,60.963696 191.632355,61.007801 198.459076,61.032410 
z"/>
<path fill="#B2B2B2" opacity="1.000000" stroke="none" 
	d="
M169.590240,23.246616 
	C169.989105,30.048954 169.989319,37.022842 169.989075,44.460213 
	C167.908661,41.334915 169.298264,37.436661 169.061966,33.692425 
	C168.846848,30.283976 169.128769,26.844158 169.590240,23.246616 
z"/>
<path fill="#666666" opacity="1.000000" stroke="none" 
	d="
M103.909042,44.380299 
	C102.179878,37.771324 103.074890,30.649899 103.681519,23.270132 
	C103.988220,29.974316 103.974808,36.950996 103.909042,44.380299 
z"/>
<path fill="#E7E7E7" opacity="1.000000" stroke="none" 
	d="
M263.574585,21.958557 
	C267.807037,19.880619 272.738617,21.489275 277.538635,21.020378 
	C279.339386,20.844469 281.173096,21.006380 283.455017,21.015347 
	C279.594299,23.266491 274.975525,21.478758 270.516449,21.964283 
	C268.380798,22.196823 266.197235,21.989235 263.574585,21.958557 
z"/>
<path fill="#DAF4FE" opacity="1.000000" stroke="none" 
	d="
M9.407528,40.867088 
	C9.000304,40.872849 8.992074,40.686573 8.936283,40.224113 
	C8.933127,33.974735 8.977530,28.001530 9.037004,21.566885 
	C9.215175,20.955505 9.378273,20.805569 9.801853,20.861992 
	C9.977063,27.603922 9.891791,34.139488 9.407528,40.867088 
z"/>
<path fill="#E7E7E7" opacity="1.000000" stroke="none" 
	d="
M104.442421,22.061333 
	C108.828636,19.572262 114.019424,21.671881 119.468979,21.064739 
	C115.025146,23.146278 109.898468,21.437891 104.442421,22.061333 
z"/>
<path fill="#808080" opacity="1.000000" stroke="none" 
	d="
M126.642700,31.328800 
	C127.038879,31.174244 127.030937,31.613224 127.019814,31.832602 
	C127.022804,36.733471 127.036919,41.414967 127.026253,46.564392 
	C124.918457,41.938255 126.310493,36.675457 126.642700,31.328800 
z"/>
<path fill="#CFCFCF" opacity="1.000000" stroke="none" 
	d="
M105.140182,52.402618 
	C109.653969,51.998070 114.337219,52.000504 119.481255,52.045063 
	C115.150856,54.075615 110.191238,52.652245 105.140182,52.402618 
z"/>
<path fill="#CDCDCD" opacity="1.000000" stroke="none" 
	d="
M92.468033,36.751541 
	C92.026382,36.727528 91.992912,36.562084 91.911987,36.147930 
	C91.913139,31.933578 91.961739,27.967936 92.013168,23.545776 
	C94.099625,27.481892 92.558273,32.105148 92.468033,36.751541 
z"/>
<path fill="#4E4E4E" opacity="1.000000" stroke="none" 
	d="
M118.760330,47.669388 
	C114.919243,47.891407 110.814949,47.785439 106.422363,47.407829 
	C110.257912,47.034710 114.385986,46.677876 118.760330,47.669388 
z"/>
<path fill="#808080" opacity="1.000000" stroke="none" 
	d="
M206.907730,58.359051 
	C205.148529,54.749020 206.112457,50.585655 206.679871,46.206837 
	C207.007065,49.945423 206.991699,53.929493 206.907730,58.359051 
z"/>
<path fill="#3B3E84" opacity="1.000000" stroke="none" 
	d="
M40.987190,30.284176 
	C43.120884,33.491302 41.491436,37.314514 41.985222,41.387356 
	C39.909847,38.728260 41.504551,35.255238 40.952316,31.554268 
	C40.940113,30.927910 40.956333,30.744181 40.987190,30.284176 
z"/>
<path fill="#FCFCFC" opacity="1.000000" stroke="none" 
	d="
M209.651611,39.799339 
	C210.172897,40.496227 210.379730,41.100449 210.862228,41.879219 
	C210.189880,43.298988 209.422058,44.756817 207.306931,45.111023 
	C206.905518,44.345520 206.837479,43.487392 206.870682,42.208202 
	C207.660110,40.979694 208.071960,39.858097 209.651611,39.799339 
z"/>
<path fill="#666666" opacity="1.000000" stroke="none" 
	d="
M104.015182,15.549238 
	C101.835663,12.785064 103.555794,9.176814 103.002258,5.330468 
	C105.137375,8.098251 103.448555,11.707388 104.015182,15.549238 
z"/>
<path fill="#FCFCFC" opacity="1.000000" stroke="none" 
	d="
M45.449036,37.795349 
	C45.038101,34.949860 45.020176,31.952681 45.026554,28.506462 
	C47.064800,31.108385 45.633488,34.443695 45.449036,37.795349 
z"/>
<path fill="#C8C8C8" opacity="1.000000" stroke="none" 
	d="
M185.649841,52.187775 
	C186.095062,52.312626 186.183273,52.691696 186.084229,52.859196 
	C182.770340,52.947819 179.555527,52.868946 176.173080,52.395454 
	C179.071854,52.021530 182.138245,52.042225 185.649841,52.187775 
z"/>
<path fill="#C8C8C8" opacity="1.000000" stroke="none" 
	d="
M195.453796,53.032669 
	C195.037033,53.065594 194.826004,52.721699 194.863068,52.523392 
	C196.785583,52.283062 198.671036,52.241039 200.719711,52.565506 
	C199.212158,52.954575 197.541351,52.977161 195.453796,53.032669 
z"/>
<path fill="#808080" opacity="1.000000" stroke="none" 
	d="
M207.027084,27.606911 
	C205.259491,26.875692 206.330231,25.026903 205.971893,23.115849 
	C207.884094,23.847889 206.617523,25.705805 207.027084,27.606911 
z"/>
<path fill="#8ECCE9" opacity="1.000000" stroke="none" 
	d="
M10.288574,21.051481 
	C9.893705,21.070475 9.725077,21.072592 9.304262,21.090076 
	C9.268496,20.563456 9.343526,19.737108 9.733114,19.543398 
	C10.384193,19.219671 10.767221,19.855478 10.936407,20.811531 
	C10.960329,21.120596 10.514814,21.034607 10.288574,21.051481 
z"/>
<path fill="#8ECCE9" opacity="1.000000" stroke="none" 
	d="
M6.388544,15.000938 
	C6.004683,14.819199 6.006259,14.636448 6.024559,14.180151 
	C6.958351,14.039952 7.875419,14.173302 8.941401,14.623126 
	C8.318202,14.959710 7.546091,14.979819 6.388544,15.000938 
z"/>
<path fill="#242779" opacity="1.000000" stroke="none" 
	d="
M41.717541,24.206917 
	C41.823212,24.472092 41.622211,24.680771 41.135788,24.883801 
	C41.011196,24.629642 41.198036,24.387066 41.717541,24.206917 
z"/>
<path fill="#242779" opacity="1.000000" stroke="none" 
	d="
M40.690327,24.987951 
	C40.750355,25.201605 40.547249,25.488493 40.087982,25.861698 
	C40.030277,25.652407 40.228733,25.356796 40.690327,24.987951 
z"/>
<path fill="#8ECCE9" opacity="1.000000" stroke="none" 
	d="
M13.020226,17.692631 
	C12.783295,17.907869 12.506786,17.775270 12.143134,17.356350 
	C12.319097,17.255671 12.627316,17.347260 13.020226,17.692631 
z"/>
<path fill="#8ECCE9" opacity="1.000000" stroke="none" 
	d="
M14.025246,18.708944 
	C13.821185,18.772114 13.534828,18.576059 13.146309,18.134827 
	C13.343748,18.076338 13.643349,18.263029 14.025246,18.708944 
z"/>
<path fill="#8ECCE9" opacity="1.000000" stroke="none" 
	d="
M11.028969,16.704985 
	C10.833246,16.766048 10.543244,16.574121 10.147467,16.137810 
	C10.339356,16.079615 10.637023,16.265806 11.028969,16.704985 
z"/>
<path fill="#8ECCE9" opacity="1.000000" stroke="none" 
	d="
M10.022685,15.696719 
	C9.816985,15.762751 9.531239,15.570427 9.145349,15.134159 
	C9.344349,15.072931 9.643494,15.255648 10.022685,15.696719 
z"/>
<path fill="#000000" opacity="1.000000" stroke="none" 
	d="
M200.931641,44.732071 
	C200.382568,45.577168 199.814041,46.035809 199.123138,46.744476 
	C191.997711,48.373802 184.931396,46.754257 177.504425,47.268562 
	C176.453415,46.543613 175.811646,45.989330 175.026413,45.148140 
	C174.079681,37.891853 174.684433,30.900690 174.726654,23.473804 
	C175.218002,22.804245 175.541519,22.581713 175.966812,22.077122 
	C183.756577,21.201849 191.454208,21.611298 199.575714,21.794594 
	C200.139267,22.304852 200.274628,22.594151 200.657349,22.930021 
	C201.659515,30.099340 201.839340,37.222290 200.931641,44.732071 
z"/>
<path fill="#939393" opacity="1.000000" stroke="none" 
	d="
M201.262283,44.821251 
	C200.219650,44.364117 198.337234,43.588886 199.348206,42.610622 
	C202.802567,39.267941 200.760300,35.251942 200.758224,31.694622 
	C200.756683,29.056387 200.956024,26.428957 200.960480,23.386547 
	C203.104111,30.097712 201.910095,37.324150 201.262283,44.821251 
z"/>
<path fill="#000000" opacity="1.000000" stroke="none" 
	d="
M209.984955,39.538399 
	C209.175537,40.557041 208.385010,41.222069 207.283203,41.837116 
	C206.971924,41.787136 207.107025,41.427456 207.068497,41.239250 
	C206.000137,38.335499 206.709167,35.523518 206.801102,32.351822 
	C207.032120,31.945068 207.109726,31.589542 207.042786,31.420361 
	C210.086090,33.093849 210.806168,35.848793 209.984955,39.538399 
z"/>
<path fill="#4E4E4E" opacity="1.000000" stroke="none" 
	d="
M177.385086,47.382370 
	C184.080780,45.995674 191.079163,47.542755 198.534119,46.995682 
	C191.948364,49.000832 184.795532,47.821316 177.385086,47.382370 
z"/>
<path fill="#E2E2E2" opacity="1.000000" stroke="none" 
	d="
M199.747971,21.672380 
	C192.333389,21.976477 184.662888,21.937401 176.530487,21.846691 
	C183.847565,20.189823 191.675354,21.038763 199.747971,21.672380 
z"/>
<path fill="#666666" opacity="1.000000" stroke="none" 
	d="
M174.628983,23.340366 
	C174.923050,30.001640 174.951630,36.976501 174.931580,44.406296 
	C173.157059,37.830170 174.088684,30.734018 174.628983,23.340366 
z"/>
<path fill="#808080" opacity="1.000000" stroke="none" 
	d="
M206.689484,32.171284 
	C207.023743,34.676735 207.015381,37.408405 207.018494,40.595558 
	C205.137741,38.297924 206.091431,35.320152 206.689484,32.171284 
z"/>
<path fill="#C8C8C8" opacity="1.000000" stroke="none" 
	d="
M190.726105,52.160179 
	C190.746506,53.747467 190.195618,54.460953 188.952606,52.575195 
	C189.396423,52.211033 189.882523,52.129696 190.726105,52.160179 
z"/>
<path fill="#000000" opacity="1.000000" stroke="none" 
	d="
M298.523926,47.260628 
	C295.666962,44.311653 298.129608,40.620342 296.157288,37.364361 
	C304.295624,35.908340 312.625000,36.785942 321.405273,36.626682 
	C323.171906,39.788551 322.204346,42.992840 322.229431,46.559784 
	C321.844604,46.990963 321.662506,46.988918 321.209656,47.023346 
	C313.629395,47.988728 306.291504,47.279594 298.523926,47.260628 
z"/>
<path fill="#808080" opacity="1.000000" stroke="none" 
	d="
M322.147705,37.253246 
	C313.606628,37.003479 305.272797,37.001835 296.470459,36.995335 
	C299.197662,34.954288 302.731842,36.156921 306.091217,36.073776 
	C311.543427,35.938835 317.006561,36.245922 322.665588,36.735958 
	C322.695740,37.237469 322.525330,37.369423 322.147705,37.253246 
z"/>
<path fill="#4E4E4E" opacity="1.000000" stroke="none" 
	d="
M298.365662,47.372459 
	C305.391052,47.058578 312.702942,47.035957 320.476868,47.036575 
	C313.557068,48.997688 306.090546,47.812229 298.365662,47.372459 
z"/>
<path fill="#CDCDCD" opacity="1.000000" stroke="none" 
	d="
M321.964844,37.458160 
	C321.940491,37.005119 322.400604,37.080414 322.633362,37.092964 
	C322.831024,40.264927 322.795898,43.424343 322.393738,46.788383 
	C322.014191,43.965736 322.001678,40.938469 321.964844,37.458160 
z"/>
<path fill="#000000" opacity="1.000000" stroke="none" 
	d="
M133.579407,47.287811 
	C131.004120,44.296608 132.434464,41.027828 131.992462,37.544792 
	C140.369171,35.824265 148.799545,36.791939 157.613647,36.851326 
	C158.021545,37.119774 157.975647,37.584797 158.010162,37.815872 
	C158.911591,40.741943 158.339417,43.503410 158.177078,46.623554 
	C157.931290,47.012516 158.010376,47.010860 158.011810,46.971336 
	C150.042755,48.140133 142.026337,47.210514 133.579407,47.287811 
z"/>
<path fill="#808080" opacity="1.000000" stroke="none" 
	d="
M157.786942,36.756950 
	C149.654785,37.084682 141.288040,37.049595 132.453110,37.057880 
	C133.832321,34.968502 136.295929,36.073025 138.428162,36.078205 
	C144.801559,36.093681 151.192352,35.540482 157.786942,36.756950 
z"/>
<path fill="#4E4E4E" opacity="1.000000" stroke="none" 
	d="
M133.415649,47.406128 
	C141.106689,47.079945 149.089539,47.030972 157.542816,46.956902 
	C154.869034,49.123837 151.330200,47.801369 147.991653,47.926067 
	C143.239914,48.103550 138.469772,47.788166 133.415649,47.406128 
z"/>
<path fill="#4E4E4E" opacity="1.000000" stroke="none" 
	d="
M158.238647,46.754898 
	C157.961243,44.320702 157.991211,41.628887 158.032913,38.492012 
	C159.767090,40.771450 159.017578,43.642609 158.238647,46.754898 
z"/>
<path fill="#000000" opacity="1.000000" stroke="none" 
	d="
M85.485573,21.690403 
	C87.470680,24.461761 86.912712,27.356813 86.993446,30.609303 
	C78.621544,31.972639 70.231003,31.318014 61.455582,31.133425 
	C61.182053,28.035227 60.463161,25.170849 61.857338,22.148710 
	C69.787148,21.051666 77.414238,21.704514 85.485573,21.690403 
z"/>
<path fill="#999999" opacity="1.000000" stroke="none" 
	d="
M60.826561,31.108658 
	C69.391258,30.903030 77.722748,30.953522 86.521667,31.026089 
	C83.999382,32.965500 80.670799,31.945127 77.539566,31.908077 
	C71.893639,31.841272 66.198128,32.747746 60.826561,31.108658 
z"/>
<path fill="#E2E2E2" opacity="1.000000" stroke="none" 
	d="
M85.612305,21.579504 
	C78.326126,21.869484 70.710365,21.908035 62.638474,21.918747 
	C69.841034,20.002577 77.573174,21.128769 85.612305,21.579504 
z"/>
<path fill="#000000" opacity="1.000000" stroke="none" 
	d="
M244.341675,45.210808 
	C243.686661,46.108070 243.147186,46.545963 242.250580,47.049545 
	C234.947250,47.941208 227.977737,47.299248 220.571579,47.289673 
	C219.798935,46.850323 219.475494,46.568302 218.985657,46.004181 
	C218.153503,38.414501 218.806213,31.092001 218.783646,23.393164 
	C219.041290,22.820047 219.086090,22.633322 219.088043,22.161770 
	C227.072021,21.755753 235.095581,21.394516 243.526382,21.673866 
	C243.918884,22.010075 243.911163,22.222700 243.968933,22.747683 
	C245.021561,30.274014 244.248901,37.522285 244.341675,45.210808 
z"/>
<path fill="#D9D9D9" opacity="1.000000" stroke="none" 
	d="
M243.605087,21.538473 
	C237.117905,22.187912 230.277740,21.928181 223.491180,22.922583 
	C222.347168,23.090206 221.058197,22.268539 219.440704,21.890450 
	C227.085510,20.089487 235.196274,21.160460 243.605087,21.538473 
z"/>
<path fill="#DFDFDF" opacity="1.000000" stroke="none" 
	d="
M218.588287,23.168156 
	C218.981949,30.286062 218.967392,37.565353 218.886032,45.283360 
	C217.087906,38.301235 218.269745,30.797241 218.588287,23.168156 
z"/>
<path fill="#C8C8C8" opacity="1.000000" stroke="none" 
	d="
M244.457031,45.354568 
	C244.148788,38.442978 244.071426,31.215790 244.014252,23.524319 
	C246.099289,30.331430 244.759811,37.704044 244.457031,45.354568 
z"/>
<path fill="#4E4E4E" opacity="1.000000" stroke="none" 
	d="
M220.416290,47.406750 
	C227.075119,47.096176 234.027847,47.060013 241.437012,47.069542 
	C234.876038,48.938892 227.780228,47.827209 220.416290,47.406750 
z"/>
</svg>